# xmcd CD database file
#
# Track frame offsets:
#	150
#	16495
#	32590
#	51497
#	64152
#	78387
#	98212
#	114440
#	129432
#	142367
#	156120
#	178042
#
# Disc length: 2611 seconds
#
# Revision: 1
# Processed by: cddbd v1.5.1PL0 Copyright (c) Steve Scherf et al.
# Submitted via: CDex 1.51
#
DISCID=a60a310c
DTITLE=Jonny Hill - die große Country-Show
DYEAR=1998
DGENRE=Country
TTITLE0=Jonny Hill - Wir lieben uns
TTITLE1=Linda Feller - Andre Mütter haben auch ein schönes Kind
TTITLE2=Larry Schuba - S.O.S.
TTITLE3=Jonny Hill - Schön, dass es Sie gibt
TTITLE4=Iris McCollins - Liebeskrank
TTITLE5=Billy White - Das war Heut nicht mein Tag
TTITLE6=Mike Herman - Strassenkinder
TTITLE7=Jonny Hill - Lass mich sein wie ich bin
TTITLE8=Dagmar - Spring in das Licht
TTITLE9=Joe Hodgkings Boss Band - Es gibt immer einen Grund
TTITLE10=Gunther Gabriel - Dieselknecht
TTITLE11=Greyhounds - Alte Freunde
EXTD=YEAR: 1998
EXTT0=
EXTT1=
EXTT2=
EXTT3=
EXTT4=
EXTT5=
EXTT6=
EXTT7=
EXTT8=
EXTT9=
EXTT10=
EXTT11=
PLAYORDER=
